<svg xmlns="http://www.w3.org/2000/svg" width="720" height="720" viewBox="0 0 720 720">
  <defs>
    <style>
      .cls-1 {
        fill: #f5f5f5;
        fill-rule: evenodd;
      }
    </style>
  </defs>
  <path id="Vageesha_Wickramawansha_Bandara_" data-name="Vageesha  Wickramawansha  Bandara  " class="cls-1" d="M131.545,287.829l28.323,21.628-35.1,5.869-2.042,8.285,45.559-7.842,1.854-7.52-36.711-28.058Zm19.7-23.395c-2.165,4.731-3.044,9.851-2.059,14.095l6.24-.4a15.992,15.992,0,0,1,1.162-10.246c2.241-4.9,5.714-6.235,9.73-4.4l0.44,0.2-3.474,7.591c-4.078,8.912-1.738,13.975,3.158,16.215,5.116,2.342,10.741-.208,13.812-6.919,2.014-4.4,2.043-8.246.268-11.055l3.576,1.637,2.97-6.492-17.219-7.879C161.375,252.9,155.118,255.963,151.242,264.434ZM175.9,276.849c-1.611,3.52-4.163,4.881-6.638,3.748-2.146-.982-3.327-3.053-1.188-7.729l3.248-7.1,3.411,1.561C177.229,269.872,177.435,273.493,175.9,276.849Zm4.537-60.113,3.475,2.526c-4.159.268-7.681,2.644-10.349,6.314-5.443,7.487-4.613,16.842,2.972,22.355s16.837,3.488,22.279-4c2.562-3.524,3.677-7.425,2.894-11.286l1.37,1c5.285,3.842,6.078,8.308,1.88,14.082a19.505,19.505,0,0,1-10.14,7.364l2.608,6.085c4.617-1.207,9.411-5.127,12.969-10.02,6.652-9.152,5.938-17.225-3.556-24.126L184.67,210.912Zm13.866,22.5c-3.379,4.649-8.833,5.771-13.286,2.534-4.4-3.2-4.97-8.7-1.591-13.348,3.344-4.6,8.748-5.758,13.152-2.556C197.031,229.1,197.646,234.631,194.3,239.231Zm34.9-48.982c-6.838-7.442-16.381-7.632-23.333-1.245-7.085,6.51-7.632,16.381-1.122,23.467s16.388,7.461,24.365.132c4.1-3.767,6.214-8.175,6.019-12.68L229,199.235a11.583,11.583,0,0,1-4.087,8.521c-4.145,3.808-9.089,4.241-12.951,1.379l18.673-17.155C230.185,191.4,229.615,190.7,229.206,190.249Zm-19.238,3.212a8.8,8.8,0,0,1,12.051-.389l-13.5,12.405A8.93,8.93,0,0,1,209.968,193.461Zm53.457-25.276c-5.324-8.591-14.663-10.563-22.687-5.59-8.179,5.069-10.563,14.663-5.5,22.842s14.7,10.4,23.91,4.69c4.733-2.933,7.634-6.867,8.286-11.329l-5.9-1.825a11.58,11.58,0,0,1-5.61,7.606c-4.784,2.965-9.721,2.465-12.979-1.069L264.5,170.152C264.171,169.5,263.744,168.7,263.425,168.185Zm-19.5-.446a8.8,8.8,0,0,1,11.912,1.873l-15.587,9.66A8.932,8.932,0,0,1,243.926,167.739Zm44.079,7.869c8.423-3.379,12.125-9.1,9.873-14.716-4.708-11.737-21.076,1.087-23.509-4.977-0.788-1.966.67-4.18,4.938-5.892a17.68,17.68,0,0,1,9.492-1.2l0.556-6.416c-3.349-.548-8.28.322-12.267,1.922-8.086,3.243-11.71,9-9.435,14.671,4.8,11.96,21.166-.863,23.464,4.864,0.833,2.078-.524,4.057-4.96,5.836a21.744,21.744,0,0,1-11.639,1.214l-0.555,6.415C277.424,178.157,283.007,177.613,288.005,175.608Zm31.306-43.531c-4.391.88-7.844,3.052-9.754,6.15l-3.208-16.021-7.417,1.485,8.817,44.029,7.417-1.486-3.208-16.021c-1.272-6.349,1.647-10.266,6.928-11.323,4.747-.951,8.082,1.22,9.211,6.857l3.446,17.208,7.417-1.485-3.636-18.158C333.411,133.759,326.907,130.556,319.311,132.077Zm41.108-3.977c-5.2.084-10.2,1.5-13.61,4.213l3.053,5.458a16,16,0,0,1,9.751-3.364c5.384-.087,8.088,2.472,8.159,6.889l0.008,0.484-8.349.134c-9.8.158-13.364,4.451-13.278,9.836,0.091,5.627,4.815,9.606,12.2,9.487,4.84-.078,8.324-1.707,10.1-4.519l0.063,3.932,7.139-.114-0.3-18.938C375.192,132.281,369.737,127.95,360.419,128.1Zm-0.585,27.606c-3.873.062-6.2-1.655-6.244-4.378-0.038-2.36,1.323-4.318,6.466-4.4l7.805-.125,0.06,3.751C366.7,153.9,363.524,155.647,359.834,155.706Zm126.81-4.534-23.393,24.856,3.835-33.878-6.593-3.041-23.426,24.64,3.923-33.637-7.417-3.422-4.994,44.337,7.636,3.523,22.8-24L455.389,183.4l7.581,3.5,30.487-32.577Zm18.426,19.695a4.642,4.642,0,0,0,6.707-.848c1.5-1.979.985-4.716-1.236-6.394A4.548,4.548,0,1,0,505.07,170.867ZM479.342,198.6l6.036,4.559,19.476-25.783-6.035-4.559Zm24.22,21.358c4.481,4.419,9.969,6.008,15.135,4.3l-1.756-6.492a9.143,9.143,0,0,1-8.874-2.465c-3.964-3.909-4.3-9.6.118-14.079,4.377-4.437,10.112-4.22,14.076-.31a9.146,9.146,0,0,1,2.585,8.841l6.516,1.667c1.676-5.232-.073-10.612-4.553-15.032-7.281-7.182-17.253-7.414-24.053-.521S496.282,212.776,503.562,219.959Zm28.009,34.282,5.267,7.542,6.927-22.848,18.841,3.3-5.2-7.442-20.883-4.535,22.229-15.524-4.331-6.2-36.816,25.71,4.331,6.2,7-4.886,7.589,1.565Zm34.811,6.494,4.249-2.054L567.5,252.2l-29.091,14.065,3.292,6.81,14.11-6.822c5.938-2.871,10.569-1.077,13.071,4.1a9.532,9.532,0,0,1,.6,1.659l6.483-3.135C573.618,264.025,570.381,261.221,566.382,260.735Zm17.494,30.434c-1.517-4.977-4.255-9.393-7.807-11.916l-4.4,4.441a16,16,0,0,1,5.925,8.442c1.57,5.151-.143,8.456-4.368,9.744l-0.463.141-2.434-7.987c-2.858-9.377-7.968-11.615-13.119-10.045-5.383,1.641-7.9,7.28-5.75,14.341,1.411,4.63,3.939,7.529,7.13,8.454l-3.762,1.146,2.082,6.83,18.116-5.522C583.938,306.522,586.593,300.083,583.876,291.169Zm-26.693,7.061c-1.129-3.705-.121-6.416,2.484-7.21,2.257-.688,4.515.079,6.015,5l2.275,7.466-3.588,1.094C560.815,304.334,558.259,301.76,557.183,298.23Zm37.406,65.314c-0.221-5.138-2.463-9.4-5.9-11.859,3.531-2.393,5.115-6.4,4.912-11.113-0.19-4.414-1.923-8.094-4.928-10.388l4.11-.176-0.309-7.195L560.191,324.2l0.325,7.557,16.383-.705c6.409-.275,9.819,2.97,10.035,7.987,0.2,4.6-2.469,7.375-8.213,7.622l-17.531.754,0.325,7.556,16.383-.7c6.408-.276,9.821,3.03,10.034,7.987,0.2,4.6-2.469,7.374-8.212,7.621l-17.532.754,0.325,7.557,18.5-.8C590.745,376.974,594.925,371.343,594.589,363.544Zm-5.122,43.135c1.072-5.093.8-10.282-1.091-14.206l-6,1.767a16,16,0,0,1,1.119,10.254c-1.11,5.27-4.2,7.34-8.527,6.43l-0.474-.1,1.72-8.172c2.02-9.593-1.378-14.018-6.648-15.128-5.507-1.159-10.434,2.566-11.955,9.79-1,4.737-.18,8.5,2.17,10.846l-3.849-.811-1.471,6.988,18.534,3.9C582.115,420.158,587.547,415.8,589.467,406.679Zm-26.79-6.691c0.8-3.79,2.988-5.679,5.653-5.118,2.31,0.486,3.918,2.247,2.858,7.281l-1.608,7.638-3.671-.773C562.914,407.087,561.916,403.6,562.677,399.988Zm0.6,76.713L545.295,458.6l25.393,2.271,2.694-5.753-17.817-18.165,25.207,2.384,3.028-6.465L549.511,429.9l-3.079,6.575L563,453.593,539.3,451.712l-3.079,6.575,24.2,24.5Zm-17.634,25.081c3.21-4.1,5.26-8.87,5.292-13.227l-6.163-1.062a15.991,15.991,0,0,1-3.522,9.693c-3.321,4.239-7.012,4.729-10.488,2l-0.381-.3,5.15-6.572c6.047-7.716,4.952-13.186.714-16.507-4.43-3.471-10.494-2.305-15.048,3.5-2.986,3.81-3.912,7.543-2.841,10.689l-3.1-2.426-4.4,5.62,14.907,11.682C533.092,510.63,539.891,509.116,545.638,501.782Zm-21.082-17.829c2.388-3.048,5.188-3.775,7.331-2.1,1.857,1.456,2.523,3.745-.649,7.794l-4.815,6.143-2.953-2.314C521.635,490.427,522.279,486.858,524.556,483.953Zm-12.881,53.2c3.576-3.08,5.53-6.839,5.475-10.7l2.725,3.163,5.456-4.7-21.085-24.485-5.732,4.935,10.661,12.38c4.225,4.906,3.606,9.752-.474,13.266-3.669,3.159-7.64,2.9-11.391-1.451l-11.451-13.3-5.731,4.936,12.082,14.031C498.567,542.607,505.806,542.2,511.675,537.149Zm-48.54-6.063c-7.836,4.581-10.657,10.787-7.6,16.011,6.384,10.919,20.692-4.176,23.99,1.466,1.069,1.829-.048,4.234-4.018,6.556a17.693,17.693,0,0,1-9.215,2.583l0.394,6.429c3.393,0.049,8.144-1.537,11.853-3.7,7.523-4.4,10.261-10.626,7.177-15.9-6.506-11.128-20.814,3.967-23.929-1.362-1.13-1.933-.078-4.09,4.049-6.5a21.735,21.735,0,0,1,11.336-2.912l-0.394-6.429C473.228,527.007,467.785,528.367,463.135,531.086Zm-24.519,47.66c4.213-1.518,7.307-4.176,8.739-7.522l5.537,15.372,7.117-2.564-15.217-42.243-7.117,2.563,5.537,15.372c2.195,6.091-.114,10.4-5.181,12.221-4.554,1.641-8.173-.014-10.122-5.422l-5.947-16.511-7.116,2.564L421.121,570C424.423,579.163,431.329,581.371,438.616,578.746Zm-40.648,10.083c5.147-.767,9.918-2.823,12.937-5.965l-3.744-5.009a16,16,0,0,1-9.223,4.616c-5.326.794-8.343-1.387-8.994-5.756l-0.071-.479,8.259-1.23c9.695-1.445,12.661-6.169,11.868-11.5-0.83-5.566-6.035-8.889-13.337-7.8-4.787.714-8.027,2.787-9.412,5.807l-0.58-3.89-7.062,1.053,2.792,18.732C382.774,586.627,388.751,590.2,397.968,588.829Zm-3.049-27.442c3.83-.57,6.363.826,6.764,3.519,0.348,2.334-.743,4.455-5.83,5.213l-7.721,1.15-0.552-3.71C388.346,564.08,391.268,561.931,394.919,561.387Zm-94.4,11.065a10.153,10.153,0,0,0-7.392,7.864c-1.5,6.546,2.844,11.951,12.752,14.225l19.343,4.439,9.474-41.281-20.523-4.71c-10.615-2.436-17.106.42-18.73,7.5A10.43,10.43,0,0,0,300.517,572.452Zm7.566,16.263c-5.308-1.218-7.882-3.8-7-7.629,0.867-3.774,4.307-4.971,9.615-3.753l10.851,2.49-2.612,11.382Zm5.179-29.6,12.385,2.843-2.734,11.912-12.385-2.842c-5.779-1.326-8.485-3.872-7.537-8S307.483,557.786,313.262,559.112Zm-47.356,11.4c4.72,2.192,9.837,3.1,14.087,2.137l-0.37-6.244a15.993,15.993,0,0,1-10.243-1.22c-4.885-2.268-6.2-5.75-4.344-9.757l0.2-.439,7.575,3.517c8.892,4.13,13.97,1.817,16.238-3.069,2.371-5.1-.148-10.745-6.845-13.855-4.391-2.039-8.237-2.09-11.056-.33l1.656-3.567-6.477-3.008-7.978,17.181C254.428,560.314,257.452,566.589,265.906,570.515Zm12.556-24.6c3.513,1.631,4.859,4.192,3.712,6.662-0.994,2.14-3.072,3.311-7.737,1.144l-7.081-3.288,1.58-3.4C271.491,544.549,275.113,544.363,278.462,545.918Zm-54.69-.461c3.809,2.786,7.913,3.838,11.665,2.91l-2.464,3.37,5.812,4.25,19.074-26.081-6.1-4.464-9.645,13.186c-3.822,5.226-8.681,5.721-13.028,2.542-3.907-2.858-4.559-6.783-1.166-11.423l10.359-14.164-6.1-4.465-10.93,14.945C215.488,533.927,217.52,540.885,223.772,545.457ZM175.234,516.4l12.35-11.065a13.236,13.236,0,0,0,3.7,10.66c6.26,6.987,15.727,7.849,23.209,1.145s7.706-16.248,1.447-23.235c-2.949-3.29-6.579-5.075-10.574-4.909l3.11-2.786-4.846-5.409-33.445,29.965Zm35.278-18.85c3.634,4.057,3.491,9.792-1.106,13.911s-10.314,3.634-13.949-.422-3.491-9.792,1.106-13.911S206.877,493.5,210.512,497.552ZM163.49,478.621c2.652,4.478,6.357,8.122,10.405,9.733L177.123,483a15.993,15.993,0,0,1-7.755-6.8c-2.744-4.634-1.862-8.251,1.939-10.5l0.417-.247,4.255,7.186c4.995,8.436,10.49,9.4,15.125,6.658,4.842-2.868,5.957-8.944,2.195-15.3-2.467-4.166-5.609-6.385-8.929-6.528l3.384-2-3.638-6.144-16.3,9.651C159.8,463.717,158.741,470.6,163.49,478.621Zm24.269-13.175c1.973,3.332,1.635,6.2-.708,7.593-2.031,1.2-4.407.991-7.028-3.435l-3.977-6.717,3.228-1.912C182.786,460.373,185.878,462.269,187.759,465.446Zm-35.814-21.587-4.388,1.74,2.655,6.693,30.038-11.911-2.788-7.031-14.57,5.777c-6.131,2.431-10.619.305-12.738-5.039a9.566,9.566,0,0,1-.479-1.7l-6.693,2.655C144.967,440.051,147.992,443.083,151.945,443.859Zm-15.228-31.592c1.151,5.076,3.561,9.68,6.921,12.455l4.715-4.11a16,16,0,0,1-5.3-8.852c-1.192-5.253.757-8.426,5.066-9.4l0.472-.107,1.848,8.145c2.169,9.561,7.1,12.165,12.356,10.974,5.489-1.246,8.413-6.687,6.779-13.888-1.071-4.721-3.382-7.8-6.5-8.951l3.836-.871-1.58-6.964-18.474,4.19C137.772,396.947,134.655,403.178,136.717,412.267Zm27.141-5.1c0.857,3.777-.346,6.408-3,7.011-2.3.522-4.5-.407-5.636-5.424l-1.727-7.614,3.659-.83C160.679,400.811,163.042,403.565,163.858,407.165Z"/>
</svg>
